<svg xmlns="http://www.w3.org/2000/svg" viewBox="0 0 34 34">
<path d="M23.8,29.8H10.2c-1.5,0-2.9-1-3.3-2.5l-2.5-9.3c-0.3-1-0.1-2.1,0.6-3c0.7-0.9,1.6-1.3,2.7-1.3h18.7c1.1,0,2.1,0.5,2.7,1.3c0.7,0.9,0.9,1.9,0.6,3l-2.5,9.3C26.7,28.7,25.3,29.8,23.8,29.8z M7.7,15.1c-0.6,0-1.2,0.3-1.5,0.8c-0.4,0.5-0.5,1.1-0.3,1.7l2.5,9.3c0.2,0.8,1,1.4,1.9,1.4h13.6c0.9,0,1.6-0.6,1.9-1.4l2.5-9.3c0.2-0.6,0-1.2-0.3-1.7c-0.4-0.5-0.9-0.8-1.5-0.8H7.7z"/>
<path d="M13.7,23.8c-0.4,0-0.8-0.3-0.8-0.8v-2.7c0-0.4,0.3-0.8,0.8-0.8s0.8,0.3,0.8,0.8V23C14.4,23.4,14.1,23.8,13.7,23.8z"/>
<path d="M20.3,23.8c-0.4,0-0.8-0.3-0.8-0.8v-2.7c0-0.4,0.3-0.8,0.8-0.8s0.8,0.3,0.8,0.8V23C21.1,23.4,20.7,23.8,20.3,23.8z"/>
<path d="M26.3,15.1C26.3,15.1,26.3,15.1,26.3,15.1H7.7c-0.3,0-0.6-0.2-0.7-0.4c-0.1-0.3-0.1-0.6,0.1-0.8c1.5-1.7,3.5-4,5.4-6.1l2-2.3C15.1,4.7,16,4.2,17,4.2c0,0,0,0,0,0c1,0,1.9,0.4,2.6,1.2l7.3,8.4c0,0,0,0,0.1,0.1c0.2,0.3,0.2,0.7-0.1,1C26.7,15,26.5,15.1,26.3,15.1z M9.3,13.6h15.4l-6.3-7.2C18.1,6,17.6,5.7,17,5.7c-0.6,0-1.1,0.2-1.4,0.7l-2,2.3C12.1,10.4,10.6,12.1,9.3,13.6z"/>
</svg>
