<?xml version="1.0" encoding="utf-8"?>
<!-- Generator: Adobe Illustrator 19.2.1, SVG Export Plug-In . SVG Version: 6.00 Build 0)  -->
<svg version="1.1" id="Слой_1" xmlns="http://www.w3.org/2000/svg" xmlns:xlink="http://www.w3.org/1999/xlink" x="0px" y="0px"
	 viewBox="0 0 32 32" style="enable-background:new 0 0 32 32;" xml:space="preserve">
<path d="M9.3,19.4c-0.3,0-0.6-0.1-0.8-0.4c-0.3-0.4-0.2-1.1,0.2-1.4l5.5-4.1c0.2-0.2,0.5-0.2,0.8-0.2c0.3,0,0.5,0.2,0.7,0.4l1.7,2.6l4.7-3.6c0.4-0.3,1.1-0.2,1.4,0.2c0.3,0.4,0.2,1.1-0.2,1.4l-5.6,4.2c-0.2,0.2-0.5,0.2-0.8,0.2c-0.3,0-0.5-0.2-0.7-0.4l-1.7-2.6l-4.6,3.5C9.7,19.4,9.5,19.4,9.3,19.4z"/>
<path d="M16,30.3C8.1,30.3,1.7,23.9,1.7,16S8.1,1.7,16,1.7S30.3,8.1,30.3,16S23.9,30.3,16,30.3z M16,3.7C9.2,3.7,3.7,9.2,3.7,16S9.2,28.3,16,28.3S28.3,22.8,28.3,16S22.8,3.7,16,3.7z"/>
</svg>
