<svg xmlns="http://www.w3.org/2000/svg" viewBox="0 0 24 24">
<path d="M10.5,20.9c-0.2,0-0.5-0.1-0.7-0.2c-0.4-0.2-0.6-0.6-0.6-1.1v-6L2.9,8.4C2.5,8,2.3,7.6,2.3,7V4.5c0-1,0.8-1.8,1.8-1.8h16c1,0,1.8,0.8,1.8,1.8V7c0,0.5-0.2,1-0.6,1.3l-6.4,5.3v4.2c0,0.7-0.4,1.3-1,1.6l-2.7,1.4C10.9,20.9,10.7,20.9,10.5,20.9z M4,4.3c-0.1,0-0.3,0.1-0.3,0.3V7c0,0.1,0,0.1,0.1,0.2l6.6,5.5c0.2,0.1,0.3,0.4,0.3,0.6v6l2.4-1.2c0.1,0,0.1-0.1,0.1-0.2v-4.5c0-0.2,0.1-0.4,0.3-0.6l6.6-5.5c0.1,0,0.1-0.1,0.1-0.2V4.5c0-0.1-0.1-0.3-0.3-0.3H4z"/>
<path d="M20.9,8.3H3.1c-0.4,0-0.8-0.3-0.8-0.8s0.3-0.8,0.8-0.8h17.8c0.4,0,0.8,0.3,0.8,0.8S21.3,8.3,20.9,8.3z"/>
</svg>
