<svg xmlns="http://www.w3.org/2000/svg" viewBox="0 0 24 24">
<path d="M12,16.1c-1.1,0-2.1-0.4-2.9-1.2c-1.6-1.6-1.6-4.2,0-5.8c0.8-0.8,1.8-1.2,2.9-1.2c1.1,0,2.1,0.4,2.9,1.2v0c1.6,1.6,1.6,4.2,0,5.8C14.1,15.7,13.1,16.1,12,16.1z M12,9.2c-0.7,0-1.4,0.3-1.9,0.8C9,11.1,9,12.9,10.1,14c1,1,2.8,1,3.8,0c1.1-1.1,1.1-2.9,0-3.9l0,0C13.4,9.5,12.7,9.2,12,9.2z"/>
<path d="M15.3,23.8c-0.6,0-1.3-0.3-1.7-0.7l-0.8-0.8c-0.2-0.2-0.5-0.3-0.8-0.3c-0.3,0-0.6,0.1-0.8,0.3L10.4,23c-0.7,0.6-1.6,0.9-2.5,0.6l-0.8-0.3c-1-0.3-1.7-1.3-1.7-2.4v-1.2c0-0.6-0.5-1.1-1.1-1.1l-1.1,0c-0.9,0-1.7-0.5-2.1-1.4l-0.4-0.8c-0.5-1-0.3-2.1,0.5-2.9L2,12.8c0.4-0.4,0.4-1.2,0-1.6l-0.8-0.8C0.6,9.7,0.4,8.7,0.7,7.8L1,7c0.3-1,1.3-1.7,2.3-1.7h1.1c0.6,0,1.1-0.5,1.1-1.1l0-1.2c0-0.9,0.5-1.8,1.3-2.2l0.7-0.4C8.6,0,9.7,0.2,10.5,1l0.8,0.8C11.5,2,11.7,2.1,12,2.1c0.3,0,0.6-0.1,0.8-0.3L13.6,1c0.7-0.6,1.6-0.9,2.5-0.6l0.8,0.3c1,0.3,1.7,1.3,1.7,2.4v1.2c0,0.6,0.5,1.1,1.1,1.1l1.1,0c0.9,0,1.7,0.5,2.1,1.4l0.4,0.8c0.5,1,0.3,2.1-0.5,2.9L22,11.2c-0.4,0.4-0.4,1.2,0,1.6l0.8,0.8c0.6,0.7,0.8,1.6,0.5,2.5L23,17c-0.3,1-1.3,1.7-2.3,1.7h-1.1c-0.6,0-1.1,0.5-1.1,1.1l0,1.2c0,0.9-0.5,1.8-1.3,2.2l-0.7,0.4C16,23.7,15.7,23.8,15.3,23.8z M12,20.5C12,20.5,12,20.5,12,20.5c0.7,0,1.3,0.3,1.7,0.7l0.8,0.8c0.3,0.3,0.8,0.4,1.3,0.2l0.7-0.4c0.4-0.2,0.6-0.6,0.6-1l0-1.2c0-1.4,1.1-2.4,2.4-2.4h1.1c0.5,0,0.9-0.3,1-0.8l0.3-0.8c0.1-0.4,0-0.8-0.3-1.2L21,13.7c-0.9-1-0.9-2.5,0-3.5l0.8-0.8c0.3-0.3,0.4-0.9,0.2-1.3l-0.4-0.8c-0.2-0.4-0.5-0.6-1-0.6l-1.1,0c-1.3,0-2.4-1.1-2.4-2.5V3.1c0-0.5-0.3-0.9-0.8-1.1l-0.8-0.3c0,0,0,0,0,0c-0.4-0.1-0.8,0-1.1,0.3l-0.8,0.8c-0.5,0.5-1.1,0.7-1.7,0.7c-0.6,0-1.3-0.3-1.7-0.7L9.5,1.9C9.2,1.6,8.7,1.5,8.2,1.7L7.5,2.1c-0.4,0.2-0.6,0.6-0.6,1l0,1.2c0,1.3-1.1,2.4-2.4,2.4H3.3c-0.5,0-0.9,0.3-1,0.8L2,8.3c-0.1,0.4,0,0.8,0.3,1.2L3,10.3c0.9,1,0.9,2.5,0,3.5l-0.8,0.8c-0.3,0.3-0.4,0.9-0.2,1.3l0.4,0.8c0.2,0.4,0.5,0.6,1,0.6l1.1,0c1.3,0,2.4,1.1,2.4,2.5v1.2c0,0.5,0.3,0.9,0.8,1.1l0.8,0.3c0.4,0.1,0.8,0,1.1-0.3l0.8-0.8C10.7,20.8,11.3,20.5,12,20.5z"/>
</svg>
