<svg xmlns="http://www.w3.org/2000/svg" viewBox="0 0 20 20">
<g>
	<path d="M10,20C4.5,20,0,15.5,0,10C0,4.5,4.5,0,10,0c5.5,0,10,4.5,10,10C20,15.5,15.5,20,10,20z M10,1c-5,0-9,4-9,9c0,5,4,9,9,9c5,0,9-4,9-9C19,5,15,1,10,1z"/>
	<path d="M11.4,15H8.7c-0.1,0-0.2-0.1-0.2-0.2v-0.6c0-0.1,0.1-0.2,0.2-0.2h0.8v-5H8.7C8.6,9.1,8.5,9,8.5,8.9V8.3c0-0.1,0.1-0.2,0.2-0.2h1.8c0.1,0,0.2,0.1,0.2,0.2v5.8h0.7c0.1,0,0.2,0.1,0.2,0.2v0.6C11.6,14.9,11.5,15,11.4,15z M10.6,6c0.2,0.2,0.2,0.3,0.2,0.6c0,0.2-0.1,0.4-0.2,0.5c-0.1,0.1-0.3,0.2-0.5,0.2c-0.2,0-0.4-0.1-0.6-0.2C9.3,7,9.3,6.8,9.3,6.6c0-0.2,0.1-0.4,0.2-0.6C9.6,5.9,9.8,5.8,10,5.8C10.3,5.8,10.4,5.9,10.6,6z"/>
</g>
</svg>
