<?xml version="1.0" encoding="utf-8"?>
<!-- Generator: Adobe Illustrator 19.2.1, SVG Export Plug-In . SVG Version: 6.00 Build 0)  -->
<svg version="1.1" id="Слой_1" xmlns="http://www.w3.org/2000/svg" xmlns:xlink="http://www.w3.org/1999/xlink" x="0px" y="0px"
	 viewBox="0 0 32 32" style="enable-background:new 0 0 32 32;" xml:space="preserve">
<style type="text/css">
	.st0{fill:#FFFFFF;}
</style>
<path d="M22,29H10c-3.9,0-7-3.1-7-7V10c0-3.9,3.1-7,7-7h12c3.9,0,7,3.1,7,7v12C29,25.9,25.9,29,22,29z M10,5c-2.8,0-5,2.2-5,5v12c0,2.8,2.2,5,5,5h12c2.8,0,5-2.2,5-5V10c0-2.8-2.2-5-5-5H10z"/>
<path d="M22.6,10.9c-0.8,0-1.5-0.6-1.5-1.4c0-0.8,0.6-1.4,1.4-1.5c0.4,0,0.8,0.2,1,0.4c0.3,0.3,0.4,0.6,0.4,1C24,10.2,23.4,10.9,22.6,10.9z M22.6,8.9c-0.3,0-0.6,0.2-0.6,0.6c0,0.1,0.1,0.3,0.2,0.4c0.1,0.1,0.2,0.2,0.4,0.2V9l0,1c0.3,0,0.5-0.2,0.5-0.5C23.1,9.1,22.9,8.9,22.6,8.9z"/>
<path d="M16,21.8c-1.5,0-3-0.6-4.1-1.7c-2.3-2.3-2.3-5.9,0-8.2c2.3-2.3,5.9-2.3,8.2,0l0,0c2.3,2.3,2.3,5.9,0,8.2C19,21.2,17.5,21.8,16,21.8z M16,12.2c-1,0-1.9,0.4-2.7,1.1c-1.5,1.5-1.5,3.9,0,5.4c1.5,1.5,3.9,1.5,5.4,0c1.5-1.5,1.5-3.9,0-5.4C17.9,12.6,17,12.2,16,12.2z"/>
</svg>
