<svg xmlns="http://www.w3.org/2000/svg" viewBox="0 0 18 18">
<path d="M9,10.5c-0.3,0-0.5-0.2-0.5-0.5V9c0-0.3,0.2-0.5,0.5-0.5c0.5,0,0.8-0.4,0.8-0.8c0-0.5-0.4-0.8-0.8-0.8S8.2,7.2,8.2,7.7c0,0.3-0.2,0.5-0.5,0.5S7.2,7.9,7.2,7.7c0-1,0.8-1.8,1.8-1.8c1,0,1.8,0.8,1.8,1.8c0,0.8-0.6,1.5-1.3,1.8V10C9.5,10.3,9.3,10.5,9,10.5z"/>
<path d="M9,15.5c-3.6,0-6.5-2.9-6.5-6.5c0-3.6,2.9-6.5,6.5-6.5s6.5,2.9,6.5,6.5C15.5,12.6,12.6,15.5,9,15.5z M9,3.5C6,3.5,3.5,6,3.5,9S6,14.5,9,14.5c3,0,5.5-2.5,5.5-5.5S12,3.5,9,3.5z"/>
<path d="M9,12.2c-0.3,0-0.5-0.3-0.5-0.5s0.3-0.5,0.5-0.5s0.5,0.3,0.5,0.5S9.3,12.2,9,12.2z"/>
</svg>
