<?xml version="1.0" encoding="utf-8"?>
<!-- Generator: Adobe Illustrator 19.2.1, SVG Export Plug-In . SVG Version: 6.00 Build 0)  -->
<svg version="1.1" id="Слой_1" xmlns="http://www.w3.org/2000/svg" xmlns:xlink="http://www.w3.org/1999/xlink" x="0px" y="0px"
	 viewBox="0 0 32 32" style="enable-background:new 0 0 32 32;" xml:space="preserve">
<style type="text/css">
	.st0{fill:#FFFFFF;}
</style>
<path d="M4.3,28.5c-0.2,0-0.4-0.1-0.5-0.2c-0.2-0.2-0.3-0.5-0.2-0.7l1.6-5.7c-1-1.8-1.5-3.8-1.5-5.9C3.7,9.1,9.2,3.5,16,3.5c3.3,0,6.4,1.3,8.8,3.6l0,0c2.3,2.3,3.6,5.4,3.6,8.8c0,6.8-5.6,12.4-12.4,12.4c-2,0-3.9-0.5-5.7-1.4l-5.9,1.5C4.5,28.5,4.4,28.5,4.3,28.5z M10.5,25.4c0.1,0,0.2,0,0.4,0.1c1.6,0.9,3.4,1.3,5.2,1.3c6,0,10.9-4.9,10.9-10.9c0-2.9-1.1-5.6-3.2-7.7S19,5,16,5c-6,0-10.9,4.9-10.9,10.9c0,1.9,0.5,3.8,1.5,5.4c0.1,0.2,0.1,0.4,0.1,0.6l-1.3,4.8l4.9-1.3C10.4,25.4,10.4,25.4,10.5,25.4z"/>
<path d="M21.1,21.9c-0.2,0-0.4-0.1-0.5-0.2c-0.3-0.3-0.3-0.8,0-1.1l0.5-0.5c0.2-0.2,0.2-0.4,0.2-0.6c0-0.1-0.1-0.3-0.3-0.5L19.4,18c-0.3-0.2-0.7-0.2-0.9,0.1L18,18.6c-0.3,0.3-0.8,0.3-1.1,0c-0.3-0.3-0.3-0.8,0-1.1l0.5-0.5c0.8-0.8,1.9-0.8,2.8-0.2l1.5,1.1c0.5,0.4,0.9,1,0.9,1.6c0.1,0.7-0.2,1.3-0.6,1.8l-0.5,0.5C21.5,21.8,21.3,21.9,21.1,21.9z"/>
<path d="M13.9,15.3c-0.2,0-0.4-0.1-0.5-0.2c-0.3-0.3-0.3-0.8,0-1.1l0.5-0.5c0.2-0.2,0.3-0.6,0.1-0.9c-0.4-0.6-0.7-1.1-1.1-1.5c-0.2-0.2-0.4-0.3-0.5-0.3c-0.1,0-0.4,0-0.6,0.2l-0.5,0.5c-0.3,0.3-0.8,0.3-1.1,0s-0.3-0.8,0-1.1l0.5-0.5c0.5-0.5,1.1-0.7,1.8-0.6c0.6,0.1,1.2,0.4,1.6,0.9c0.3,0.5,0.7,1,1.1,1.5c0.6,0.9,0.5,2.1-0.2,2.8l-0.5,0.5C14.3,15.2,14.1,15.3,13.9,15.3z"/>
<path d="M19,22.8c-1.8,0-4.1-1.2-6.3-3.4c-0.3-0.3-0.3-0.8,0-1.1s0.8-0.3,1.1,0c2.1,2.1,5.2,4,6.9,2.3c0.3-0.3,0.8-0.3,1.1,0s0.3,0.8,0,1.1C20.9,22.4,20,22.8,19,22.8z"/>
<path d="M13.2,19.6c-0.2,0-0.4-0.1-0.5-0.2c-3.5-3.5-4.4-6.9-2.3-9c0.3-0.3,0.8-0.3,1.1,0c0.3,0.3,0.3,0.8,0,1.1c-1.7,1.7,0.2,4.7,2.3,6.9c0.3,0.3,0.3,0.8,0,1.1C13.6,19.5,13.4,19.6,13.2,19.6z"/>
<path d="M17.5,18.8c-0.1,0-0.3,0-0.4-0.1c-0.7-0.4-1.4-1-2.1-1.7c-0.7-0.7-1.2-1.4-1.7-2.1c-0.2-0.4-0.1-0.8,0.2-1c0.3-0.2,0.8-0.1,1,0.2c0.4,0.6,0.9,1.2,1.5,1.8c0.6,0.6,1.2,1.1,1.8,1.5c0.3,0.2,0.5,0.7,0.2,1C18,18.7,17.7,18.8,17.5,18.8z"/>
</svg>
