<svg xmlns="http://www.w3.org/2000/svg" viewBox="0 0 32 32">
<path d="M20.7,20.4h-9.3c-0.6,0-1-0.5-1-1s0.5-1,1-1h9.3c0.6,0,1,0.5,1,1S21.2,20.4,20.7,20.4z"/>
<path d="M20.7,15h-9.3c-0.6,0-1-0.5-1-1s0.5-1,1-1h9.3c0.6,0,1,0.5,1,1S21.2,15,20.7,15z"/>
<path d="M4,29.1c-0.3,0-0.6-0.1-0.8-0.3c-0.3-0.3-0.4-0.7-0.3-1L4.4,22c-1-1.9-1.5-3.9-1.5-6C2.9,8.8,8.8,2.9,16,2.9S29.1,8.8,29.1,16S23.2,29.1,16,29.1c-2.1,0-4.2-0.5-6-1.5l-5.7,1.4C4.2,29.1,4.1,29.1,4,29.1z M10.1,25.4c0.2,0,0.4,0,0.5,0.1c1.6,0.9,3.5,1.4,5.3,1.4c6,0,10.9-4.9,10.9-10.9S22,5.1,16,5.1S5.1,10,5.1,16c0,1.9,0.5,3.7,1.4,5.3c0.1,0.2,0.2,0.5,0.1,0.8l-1.1,4.4l4.4-1.1C10,25.4,10.1,25.4,10.1,25.4z"/>
</svg>
