<svg xmlns="http://www.w3.org/2000/svg" viewBox="0 0 25 25">
<path d="M4.2,11.4c-0.4,0-0.7-0.3-0.7-0.7V7.9c0-0.6,0.3-1.2,0.9-1.5l2.4-1.3c0.4-0.2,0.8-0.1,1,0.3c0.2,0.4,0.1,0.8-0.3,1L5.1,7.7C5,7.8,5,7.8,5,7.9v2.7C5,11.1,4.6,11.4,4.2,11.4z"/>
<path d="M12.9,22.4c-0.3,0-0.6-0.1-0.8-0.2l-2.4-1.3c-0.4-0.2-0.5-0.6-0.3-1s0.6-0.5,1-0.3l2.4,1.3c0.1,0,0.2,0,0.2,0l2.4-1.3c0.4-0.2,0.8-0.1,1,0.3c0.2,0.4,0.1,0.8-0.3,1l-2.4,1.3C13.5,22.3,13.2,22.4,12.9,22.4z"/>
<path d="M18.7,19.3c-0.3,0-0.5-0.1-0.6-0.4c-0.2-0.4-0.1-0.8,0.3-1l2.4-1.3c0.1,0,0.1-0.1,0.1-0.2v-2.7c0-0.4,0.3-0.7,0.7-0.7s0.7,0.3,0.7,0.7v2.7c0,0.6-0.3,1.2-0.9,1.5l-2.4,1.3C18.9,19.3,18.8,19.3,18.7,19.3z"/>
<path d="M10,4.9c-0.3,0-0.5-0.1-0.6-0.4c-0.2-0.4-0.1-0.8,0.3-1l2.4-1.3c0.5-0.3,1.1-0.3,1.7,0l2.4,1.3c0.4,0.2,0.5,0.6,0.3,1c-0.2,0.4-0.6,0.5-1,0.3L13,3.4c-0.1,0-0.2,0-0.2,0l-2.4,1.3C10.3,4.8,10.1,4.9,10,4.9z"/>
<path d="M12.9,6.2c-0.4,0-0.7-0.3-0.7-0.7V2.7c0-0.4,0.3-0.7,0.7-0.7c0.4,0,0.7,0.3,0.7,0.7v2.8C13.7,5.8,13.3,6.2,12.9,6.2z"/>
<path d="M12.9,22.4c-0.4,0-0.7-0.3-0.7-0.7v-2.8c0-0.4,0.3-0.7,0.7-0.7c0.4,0,0.7,0.3,0.7,0.7v2.8C13.7,22.1,13.3,22.4,12.9,22.4z"/>
<path d="M6.8,9.5c-0.1,0-0.2,0-0.4-0.1L4,8.1c-0.4-0.2-0.5-0.6-0.3-1c0.2-0.4,0.6-0.5,1-0.3l2.4,1.3c0.4,0.2,0.5,0.6,0.3,1C7.3,9.3,7,9.5,6.8,9.5z"/>
<path d="M21.5,17.6c-0.1,0-0.2,0-0.4-0.1l-2.4-1.3c-0.4-0.2-0.5-0.6-0.3-1c0.2-0.4,0.6-0.5,1-0.3l2.4,1.3c0.4,0.2,0.5,0.6,0.3,1C22,17.5,21.7,17.6,21.5,17.6z"/>
<path d="M21.6,11.4c-0.4,0-0.7-0.3-0.7-0.7V7.9c0-0.1,0-0.2-0.1-0.2l-2.4-1.3c-0.4-0.2-0.5-0.6-0.3-1c0.2-0.4,0.6-0.5,1-0.3l2.4,1.3c0.5,0.3,0.9,0.9,0.9,1.5v2.7C22.3,11.1,22,11.4,21.6,11.4z"/>
<path d="M7.1,19.3c-0.1,0-0.2,0-0.4-0.1l-2.4-1.3c-0.5-0.3-0.9-0.9-0.9-1.5v-2.7c0-0.4,0.3-0.7,0.7-0.7S5,13.3,5,13.7v2.7c0,0.1,0,0.2,0.1,0.2L7.5,18c0.4,0.2,0.5,0.6,0.3,1C7.6,19.2,7.4,19.3,7.1,19.3z"/>
<path d="M19.1,9.5c-0.3,0-0.5-0.1-0.6-0.4c-0.2-0.4-0.1-0.8,0.3-1l2.4-1.3c0.4-0.2,0.8-0.1,1,0.3c0.2,0.4,0.1,0.8-0.3,1l-2.4,1.3C19.3,9.5,19.2,9.5,19.1,9.5z"/>
<path d="M12.9,16.9c-0.3,0-0.6-0.1-0.8-0.2l-2.7-1.6c-0.5-0.3-0.8-0.8-0.8-1.4v-3.1c0-0.6,0.3-1.1,0.8-1.4l2.7-1.6c0.5-0.3,1.1-0.3,1.6,0l2.7,1.6c0.5,0.3,0.8,0.8,0.8,1.4v3.1c0,0.6-0.3,1.1-0.8,1.4l-2.7,1.6C13.5,16.8,13.2,16.9,12.9,16.9z M12.9,8.9C12.9,8.9,12.9,8.9,12.9,8.9l-2.8,1.6c-0.1,0-0.1,0.1-0.1,0.1v3.1c0,0.1,0,0.1,0.1,0.1l2.7,1.6l0,0c0.1,0,0.1,0,0.2,0l2.7-1.6c0.1,0,0.1-0.1,0.1-0.1v-3.1c0-0.1,0-0.1-0.1-0.1L12.9,8.9C13,8.9,12.9,8.9,12.9,8.9z"/>
<path d="M12.9,12.9c-0.1,0-0.2,0-0.4-0.1l-3.5-2c-0.4-0.2-0.5-0.7-0.3-1c0.2-0.4,0.7-0.5,1-0.3l3.5,2c0.4,0.2,0.5,0.7,0.3,1C13.4,12.8,13.2,12.9,12.9,12.9z"/>
<path d="M12.9,12.9c-0.3,0-0.5-0.1-0.6-0.4c-0.2-0.4-0.1-0.8,0.3-1l3.5-2c0.4-0.2,0.8-0.1,1,0.3c0.2,0.4,0.1,0.8-0.3,1l-3.5,2C13.2,12.9,13,12.9,12.9,12.9z"/>
<path d="M12.9,16.9c-0.4,0-0.7-0.3-0.7-0.7v-4c0-0.4,0.3-0.7,0.7-0.7c0.4,0,0.7,0.3,0.7,0.7v4C13.7,16.6,13.3,16.9,12.9,16.9z"/>
<path d="M4.4,17.6c-0.3,0-0.5-0.1-0.6-0.4c-0.2-0.4-0.1-0.8,0.3-1l2.4-1.3c0.4-0.2,0.8-0.1,1,0.3s0.1,0.8-0.3,1l-2.4,1.3C4.6,17.6,4.5,17.6,4.4,17.6z"/>
</svg>
