<svg xmlns="http://www.w3.org/2000/svg" viewBox="0 0 24 24">
<path d="M19,10.5H5c-1.5,0-2.8-1.2-2.8-2.8V5c0-1.5,1.2-2.8,2.8-2.8h14c1.5,0,2.8,1.2,2.8,2.8v2.8C21.8,9.3,20.5,10.5,19,10.5z M5,3.8C4.3,3.8,3.8,4.3,3.8,5v2.8C3.8,8.4,4.3,9,5,9h14c0.7,0,1.3-0.6,1.3-1.3V5c0-0.7-0.6-1.3-1.3-1.3H5z"/>
<path d="M19,21.8H5c-1.5,0-2.8-1.2-2.8-2.8v-2.8c0-1.5,1.2-2.8,2.8-2.8h14c1.5,0,2.8,1.2,2.8,2.8V19C21.8,20.5,20.5,21.8,19,21.8z M5,15c-0.7,0-1.3,0.6-1.3,1.3V19c0,0.7,0.6,1.3,1.3,1.3h14c0.7,0,1.3-0.6,1.3-1.3v-2.8c0-0.7-0.6-1.3-1.3-1.3H5z"/>
</svg>
