<svg width="284" height="253" viewBox="0 0 284 253" fill="none" xmlns="http://www.w3.org/2000/svg">
<path fill-rule="evenodd" clip-rule="evenodd" d="M17.5484 172.774C13.4121 165.609 15.8668 156.448 23.0311 152.312L170.504 67.1684C177.668 63.032 186.829 65.4867 190.966 72.651C195.102 79.8153 192.647 88.9763 185.483 93.1126L166.186 104.254C167.734 105.252 169.075 106.624 170.059 108.329C173.368 114.06 171.404 121.389 165.673 124.698L152.769 132.148C152.818 132.133 152.868 132.118 152.917 132.104C149.777 134.179 147.706 137.741 147.706 141.786C147.706 148.191 152.898 153.383 159.303 153.383C162.275 153.383 164.987 152.264 167.039 150.425L175.663 145.446C181.394 142.137 188.723 144.101 192.032 149.832C193.316 152.057 193.806 154.522 193.59 156.899L211.062 146.543C216.861 143.106 224.349 145.021 227.787 150.821C231.224 156.62 229.309 164.108 223.51 167.546L114.868 231.937C109.068 235.375 101.58 233.46 98.1426 227.66C96.4743 224.845 96.0668 221.633 96.7522 218.679L40.1726 251.345C34.4412 254.654 27.1124 252.69 23.8034 246.959C20.4943 241.228 22.4581 233.899 28.1895 230.59L71.0834 205.825C76.9542 205.051 81.4854 200.027 81.4854 193.945C81.4854 187.327 76.1204 181.962 69.5023 181.962C66.7666 181.962 64.2449 182.879 62.2278 184.422L18.1998 209.842C12.4684 213.151 5.13963 211.187 1.83058 205.455C-1.47847 199.724 0.485268 192.395 6.21671 189.086L24.0455 178.793C21.412 177.533 19.1183 175.493 17.5484 172.774Z" fill="#D43C38" fill-opacity="0.5"/>
<path d="M236.067 190.922L266.621 173.574" stroke="#D43C38" stroke-opacity="0.5" stroke-width="17.9747" stroke-linecap="round"/>
<g filter="url(#filter0_d)">
<path fill-rule="evenodd" clip-rule="evenodd" d="M195.092 161.313C187.402 167.498 177.681 171.177 167.164 171.177C142.507 171.177 122.228 150.951 122.228 125.641C122.228 100.332 142.507 80.1054 167.164 80.1054C191.822 80.1054 212.101 100.332 212.101 125.641C212.101 138.558 206.819 150.151 198.369 158.407C197.574 158.82 196.827 159.361 196.159 160.029C195.758 160.431 195.402 160.861 195.092 161.313ZM201.973 178.553C192.005 185.249 180.036 189.152 167.164 189.152C132.419 189.152 104.253 160.717 104.253 125.641C104.253 90.5654 132.419 62.1307 167.164 62.1307C201.909 62.1307 230.076 90.5654 230.076 125.641C230.076 141.2 224.534 155.451 215.335 166.494L261.595 212.754C265.105 216.264 265.105 221.955 261.595 225.465C258.085 228.974 252.395 228.974 248.885 225.465L201.973 178.553Z" fill="#020405"/>
</g>
<circle cx="109.152" cy="204.836" r="38.452" fill="#D43C38"/>
<path d="M104.264 184.031H115.163L113.346 210.808H106.081L104.264 184.031ZM109.713 225.515C108.112 225.515 106.764 225.007 105.67 223.992C104.616 222.937 104.088 221.667 104.088 220.183C104.088 218.699 104.616 217.468 105.67 216.492C106.725 215.476 108.073 214.968 109.713 214.968C111.354 214.968 112.702 215.476 113.756 216.492C114.811 217.468 115.338 218.699 115.338 220.183C115.338 221.667 114.791 222.937 113.698 223.992C112.643 225.007 111.315 225.515 109.713 225.515Z" fill="white"/>
<g filter="url(#filter1_d)">
<path d="M226.481 60.404C224.883 59.4816 224.883 57.1754 226.481 56.2529L251.335 41.9038C252.932 40.9813 254.93 42.1344 254.93 43.9793L254.93 72.6776C254.93 74.5225 252.932 75.6756 251.335 74.7531L226.481 60.404Z" fill="white"/>
</g>
<g filter="url(#filter2_d)">
<path d="M21.7193 116.469C16.3269 113.356 16.3269 105.572 21.7193 102.459C27.1117 99.3458 33.8522 103.237 33.8522 109.464C33.8522 115.691 27.1117 119.582 21.7193 116.469Z" fill="white"/>
</g>
<g filter="url(#filter3_d)">
<path d="M192.629 220.185C189.034 218.109 189.034 212.92 192.629 210.845C196.224 208.769 200.717 211.364 200.717 215.515C200.717 219.666 196.224 222.26 192.629 220.185Z" fill="white"/>
</g>
<g filter="url(#filter4_d)">
<path d="M192.174 35.2241C185.053 31.1129 185.053 20.835 192.174 16.7239C199.294 12.6127 208.195 17.7517 208.195 25.974C208.195 34.1963 199.294 39.3352 192.174 35.2241Z" fill="#D43C38"/>
</g>
<path d="M66.0142 54.3987C67.5803 55.374 67.5032 57.6789 65.8755 58.5475L41.6373 71.4813C40.0096 72.3499 38.0521 71.1307 38.1137 69.2868L39.0318 41.829C39.0934 39.9851 41.128 38.8994 42.6941 39.8747L66.0142 54.3987Z" fill="#D43C38"/>
<path d="M92.27 79.619L126.026 59.7341" stroke="#D43C38" stroke-opacity="0.5" stroke-width="17.9747" stroke-linecap="round"/>
<defs>
<filter id="filter0_d" x="92.2698" y="50.1476" width="183.941" height="189.932" filterUnits="userSpaceOnUse" color-interpolation-filters="sRGB">
<feFlood flood-opacity="0" result="BackgroundImageFix"/>
<feColorMatrix in="SourceAlpha" type="matrix" values="0 0 0 0 0 0 0 0 0 0 0 0 0 0 0 0 0 0 127 0"/>
<feOffset/>
<feGaussianBlur stdDeviation="5.99156"/>
<feColorMatrix type="matrix" values="0 0 0 0 0.831373 0 0 0 0 0.235294 0 0 0 0 0.219608 0 0 0 1 0"/>
<feBlend mode="normal" in2="BackgroundImageFix" result="effect1_dropShadow"/>
<feBlend mode="normal" in="SourceGraphic" in2="effect1_dropShadow" result="shape"/>
</filter>
<filter id="filter1_d" x="218.093" y="34.3892" width="44.0264" height="47.8784" filterUnits="userSpaceOnUse" color-interpolation-filters="sRGB">
<feFlood flood-opacity="0" result="BackgroundImageFix"/>
<feColorMatrix in="SourceAlpha" type="matrix" values="0 0 0 0 0 0 0 0 0 0 0 0 0 0 0 0 0 0 127 0"/>
<feOffset/>
<feGaussianBlur stdDeviation="3.59494"/>
<feColorMatrix type="matrix" values="0 0 0 0 1 0 0 0 0 1 0 0 0 0 1 0 0 0 1 0"/>
<feBlend mode="normal" in2="BackgroundImageFix" result="effect1_dropShadow"/>
<feBlend mode="normal" in="SourceGraphic" in2="effect1_dropShadow" result="shape"/>
</filter>
<filter id="filter2_d" x="6.58185" y="90.2704" width="38.3631" height="38.3872" filterUnits="userSpaceOnUse" color-interpolation-filters="sRGB">
<feFlood flood-opacity="0" result="BackgroundImageFix"/>
<feColorMatrix in="SourceAlpha" type="matrix" values="0 0 0 0 0 0 0 0 0 0 0 0 0 0 0 0 0 0 127 0"/>
<feOffset/>
<feGaussianBlur stdDeviation="5.54647"/>
<feColorMatrix type="matrix" values="0 0 0 0 1 0 0 0 0 1 0 0 0 0 1 0 0 0 1 0"/>
<feBlend mode="normal" in2="BackgroundImageFix" result="effect1_dropShadow"/>
<feBlend mode="normal" in="SourceGraphic" in2="effect1_dropShadow" result="shape"/>
</filter>
<filter id="filter3_d" x="186.338" y="206.519" width="17.9747" height="17.9908" filterUnits="userSpaceOnUse" color-interpolation-filters="sRGB">
<feFlood flood-opacity="0" result="BackgroundImageFix"/>
<feColorMatrix in="SourceAlpha" type="matrix" values="0 0 0 0 0 0 0 0 0 0 0 0 0 0 0 0 0 0 127 0"/>
<feOffset/>
<feGaussianBlur stdDeviation="1.79747"/>
<feColorMatrix type="matrix" values="0 0 0 0 1 0 0 0 0 1 0 0 0 0 1 0 0 0 1 0"/>
<feBlend mode="normal" in2="BackgroundImageFix" result="effect1_dropShadow"/>
<feBlend mode="normal" in="SourceGraphic" in2="effect1_dropShadow" result="shape"/>
</filter>
<filter id="filter4_d" x="172.185" y="0.628612" width="50.6589" height="50.6908" filterUnits="userSpaceOnUse" color-interpolation-filters="sRGB">
<feFlood flood-opacity="0" result="BackgroundImageFix"/>
<feColorMatrix in="SourceAlpha" type="matrix" values="0 0 0 0 0 0 0 0 0 0 0 0 0 0 0 0 0 0 127 0"/>
<feOffset/>
<feGaussianBlur stdDeviation="7.32418"/>
<feColorMatrix type="matrix" values="0 0 0 0 0.831373 0 0 0 0 0.235294 0 0 0 0 0.219608 0 0 0 1 0"/>
<feBlend mode="normal" in2="BackgroundImageFix" result="effect1_dropShadow"/>
<feBlend mode="normal" in="SourceGraphic" in2="effect1_dropShadow" result="shape"/>
</filter>
</defs>
</svg>
