<svg width="20" height="20" viewBox="0 0 20 20" fill="none" xmlns="http://www.w3.org/2000/svg">
<path d="M17.4999 6.25L15 10H16.25C16.25 13.446 13.446 16.25 9.99999 16.25C7.87949 16.25 6.00837 15.183 4.87786 13.5633L3.42041 15.7495C5.02557 17.584 7.37664 18.75 9.99999 18.75C14.8248 18.75 18.75 14.8248 18.75 10H20L17.4999 6.25Z" fill="white"/>
<path d="M3.75 9.99993C3.75 6.5539 6.55395 3.74994 9.99998 3.74994C12.1205 3.74994 13.9916 4.8169 15.1221 6.43664L16.5796 4.25046C14.9744 2.41598 12.6233 1.25 9.99998 1.25C5.17515 1.25 1.25001 5.17518 1.25001 9.99997H0L2.49998 13.75L4.99997 9.99997L3.75 9.99993Z" fill="white"/>
</svg>
