<?xml version="1.0" encoding="utf-8"?>
<!-- Generator: Adobe Illustrator 19.2.1, SVG Export Plug-In . SVG Version: 6.00 Build 0)  -->
<svg version="1.1" id="Слой_1" xmlns="http://www.w3.org/2000/svg" xmlns:xlink="http://www.w3.org/1999/xlink" x="0px" y="0px"
	 viewBox="0 0 32 32" style="enable-background:new 0 0 32 32;" xml:space="preserve">
<style type="text/css">
	.st0{fill:#FFFFFF;}
</style>
<path d="M12.4,26.2c-0.1,0-0.3,0-0.4-0.1c-0.6-0.1-1-0.6-1.2-1.1L9,19c-0.1-0.4,0.1-0.8,0.5-0.9c0.4-0.1,0.8,0.1,0.9,0.5l1.8,6c0,0,0,0.1,0.1,0.1c0.1,0,0.1,0,0.1,0l2.8-2.7c0.3-0.3,0.8-0.3,1.1,0c0.3,0.3,0.3,0.8,0,1.1l-2.8,2.7C13.2,26.1,12.8,26.2,12.4,26.2z"/>
<path d="M21.6,27.3c-0.4,0-0.8-0.1-1.2-0.4l-7.2-5.3c-0.5-0.3-0.7-0.9-0.8-1.4c0-0.6,0.2-1.1,0.6-1.5l5.2-4.7l1,1.1l-5.2,4.7C14,19.9,14,20.1,14,20.1c0,0.1,0,0.2,0.2,0.3l7.2,5.3c0.2,0.1,0.4,0.1,0.4,0.1c0.1,0,0.2-0.1,0.3-0.3l3.5-16.6c0-0.1,0-0.2-0.1-0.3c0,0-0.1-0.1-0.3,0L4.6,16.4l5.3,1.6c0.4,0.1,0.6,0.5,0.5,0.9c-0.1,0.4-0.5,0.6-0.9,0.5L4,17.8c-0.6-0.2-1-0.7-1-1.3c0-0.6,0.3-1.2,0.9-1.4l20.7-8c0.6-0.2,1.3-0.1,1.8,0.3c0.5,0.4,0.7,1.1,0.6,1.7l-3.5,16.6c-0.1,0.7-0.6,1.2-1.2,1.4C22,27.3,21.8,27.3,21.6,27.3z"/>
</svg>
